<svg id="Слой_1" data-name="Слой 1" xmlns="http://www.w3.org/2000/svg" viewBox="0 0 547.84 185.3"><defs><style>.cls-1{fill:#fff;}</style></defs><path class="cls-1" d="M295.49,227.34v64l-5-2.87-12.86-7.42V239.74s0,0,0,0L273,237.08,258.53,229l-.16-.09,0,0L255,226.94l-17.77-10.26-17.77-10.26-17.77,10.26-17.76,10.25-17.78-10.26-1.68-1,18-10.11,18-10.11,13.85-7.77,4.18-2.34.92.53,1.1-.64,4.37,2.45,13.66,7.66,18,10.11,18,10.12,18,10.11,2.82,1.58A.08.08,0,0,1,295.49,227.34Z" transform="translate(-143.92 -185.26)"/><path class="cls-1" d="M289.41,308.36c-.28.6-.57,1.19-.86,1.78a116.2,116.2,0,0,1-19,27.8,114.42,114.42,0,0,1-9.18,9q-2.14,1.9-4.4,3.69a120,120,0,0,1-16.43,11q-4.25,2.37-8.7,4.41a117.7,117.7,0,0,1-11.22,4.5l-.12,0-.35-.13h0q-5.51-1.9-10.75-4.33-4.54-2.08-8.87-4.52a119.15,119.15,0,0,1-16.4-11.05l.77-.45-4.29-2.48a117.78,117.78,0,0,1-28.78-37.13h0c-.36-.74-.71-1.48-1.06-2.22a115.45,115.45,0,0,1-5.85-15.36V227.22l2.51-1.41,1.94,1.12,17.71,10.23-4.43,2.49v50.22a83.4,83.4,0,0,0,2.81,7.91c.2.52.42,1,.65,1.56a87.76,87.76,0,0,0,8.64,15.52A90,90,0,0,0,185.5,328.6q3,2.85,6.2,5.42a89.5,89.5,0,0,0,9,6.34A92.18,92.18,0,0,0,211,345.91q2.4,1.11,4.88,2.07l3.57,2.06,3-1.7q2.94-1.11,5.79-2.43a93.75,93.75,0,0,0,20.08-12.51q2.74-2.23,5.3-4.69A90,90,0,0,0,265.35,315,87.81,87.81,0,0,0,274,299.48Z" transform="translate(-143.92 -185.26)"/><path class="cls-1" d="M260.89,250.87v20.51L255,268l-10.16-5.87v-1.17l-6.68-3.75-16.74-9.39-1.29-.72-.47-.26-.66.37.48.27-17.77,10.26L219.45,268l17.76,10.26,7.59,4.38L255,288.49l4.33,2.5a63.73,63.73,0,0,1-8.61,15.54,65.9,65.9,0,0,1-10.5,11l0,0-3,1.71-16.63,9.6,0,0-1.37.48-17.51-10.11-4.94-2.85a66,66,0,0,1-9-9.63,63.71,63.71,0,0,1-8.68-15.5c-.6-1.53-1.13-3.09-1.61-4.67v-1.84l6.45,3.72,17.76,10.26,7.45,4.3A40.43,40.43,0,0,0,215.9,307l.27.12,3.27,1.89,2.08-1.21h0c.61-.25,1.22-.51,1.82-.79a40.32,40.32,0,0,0,8.09-4.93l5.76-3.32-1.3-.76-16.47-9.5-17.76-10.26-7.18-4.14L183.91,268l-6.45-3.72V251.17l6.45-3.72,17.77-10.26,17.45-10.08h0l2.9,1.63,15.12,8.48,3.12,1.75.42.24.08,0,14.2,8.21Z" transform="translate(-143.92 -185.26)"/><path class="cls-1" d="M395,317.62v-2.53c7.18,0,9.61-1.92,9.61-7V254.38c0-5.06-2.43-7-9.61-7v-2.53h13.65l46.14,60.91V253c0-3.95-2.63-5.57-10.52-5.57v-2.53h23.17v2.53c-6.68,0-9.71,1.72-9.71,5.57v65.16H456.1l-48.47-64.56v54.54c0,5.06,2.23,7,10.53,7v2.53Z" transform="translate(-143.92 -185.26)"/><path class="cls-1" d="M495.94,317.87v-2.53c6.28,0,11.44-.5,11.44-5.56V253.52c0-4.25-2-5.87-8.5-5.87-13.05,0-18.31,7.79-22.77,15l-1.41-.81,5.87-16.7h60l6,17.41-1.72.71c-4.86-8.1-8.4-15.59-21-15.59-7,0-10.22,1.62-10.22,5.87v56.26c0,5.06,4.05,5.56,11.44,5.56v2.53Z" transform="translate(-143.92 -185.26)"/><path class="cls-1" d="M557,317.87v-2.53c7.59,0,9.61-2.32,9.61-7.18V253.72c0-4.45-2-6.07-9.61-6.07v-2.53h32.88c15.69,0,23.78,7.59,23.78,17.91,0,9.51-6.17,17.81-19.73,18.52l16.49,29.14c2.13,3.74,5,4.65,10.32,4.65v2.53H607.09l-20-36.22H573v26.51c0,4.86,2.63,7.18,9.71,7.18v2.53Zm16-38.75h18.71c11.23,0,15-8,15-16.09,0-9.61-6.38-15.38-17.3-15.38h-9c-4.75,0-7.38,1.62-7.38,6.07Z" transform="translate(-143.92 -185.26)"/><path class="cls-1" d="M645.32,317.87v-2.53c8.81,0,10.53-1.62,10.53-5.76V288.73L636.12,251.9c-2.33-3.23-3.54-4.25-10.12-4.25v-2.53h26.1v2.53c-7.18,0-9.61.61-9.61,2.33a4,4,0,0,0,.71,2.13l17.3,32.37L677.8,254a7.91,7.91,0,0,0,.91-2.94c0-2.42-2.63-3.44-9.81-3.44v-2.53h22.87v2.53c-7.19,0-8.6,2-11.34,7.29l-18.21,32.17v22.57c0,4,1.92,5.66,10.52,5.66v2.53Z" transform="translate(-143.92 -185.26)"/><path class="cls-1" d="M329.06,317.49h-16V315c6.88,0,9.61-2.12,9.61-7V253.75c0-4.65-2.73-6.48-9.61-6.48v-2.53H329m.06,63.24,0-29.85" transform="translate(-143.92 -185.26)"/><path class="cls-1" d="M372.23,245.12h-37.4l.25,8.47h0c.21-4.24,2.92-5.93,8-5.93H353c15.68,0,19.73,9.52,24.79,15.69l1.52-1Z" transform="translate(-143.92 -185.26)"/><path class="cls-1" d="M335.1,281.3v-.05h15.38c7.08,0,10.93,3.94,10.93,12.95h2.42V265.87h-2.42c0,9.61-3.85,12.64-10.93,12.64H335.1v-.1h0v2.88Z" transform="translate(-143.92 -185.26)"/><path class="cls-1" d="M379.72,299.26c-8.09,11.23-15.28,16.08-27,16.08h-9.51c-4.82,0-7.51-1.72-8-5.61h-.12v8.14h39.6l6.88-17.8Z" transform="translate(-143.92 -185.26)"/><path class="cls-1" d="M329.84,308.24" transform="translate(-143.92 -185.26)"/></svg>